<svg width="32" height="32" viewBox="0 0 32 32" fill="none" xmlns="http://www.w3.org/2000/svg">
<g clip-path="url(#clip0_3197_421)">
<path d="M17.8759 16.0087L31.593 2.2916C32.1224 1.7803 32.1371 0.936661 31.6258 0.40724C31.1145 -0.122182 30.2708 -0.136862 29.7414 0.374444C29.7303 0.385141 29.7194 0.396074 29.7086 0.40724L15.9914 14.1243L2.27434 0.407162C1.74492 -0.104144 0.901276 -0.0894636 0.38997 0.439958C-0.108842 0.956417 -0.108842 1.77515 0.38997 2.2916L14.1071 16.0087L0.38997 29.7258C-0.130316 30.2461 -0.130316 31.0898 0.38997 31.6101C0.910334 32.1304 1.75397 32.1304 2.27434 31.6101L15.9914 17.8931L29.7085 31.6101C30.238 32.1215 31.0816 32.1068 31.5929 31.5774C32.0916 31.0609 32.0916 30.2422 31.5929 29.7258L17.8759 16.0087Z" fill="black" fill-opacity="0.15"/>
</g>
<defs>
<clipPath id="clip0_3197_421">
<rect width="32" height="32" fill="white"/>
</clipPath>
</defs>
</svg>
