<svg width="25" height="26" viewBox="0 0 25 26" fill="none" xmlns="http://www.w3.org/2000/svg">
<g filter="url(#filter0_ii_1178_58)">
<path d="M1.43599 0.537966C1.14499 0.845966 0.972992 1.32397 0.972992 1.94297V24.059C0.972992 24.679 1.14499 25.156 1.43599 25.464L1.50999 25.536L13.899 13.147V13.001V12.855L1.50999 0.464966L1.43599 0.537966Z" fill="url(#paint0_linear_1178_58)"/>
<path d="M18.028 17.278L13.899 13.147V13.001V12.855L18.029 8.72498L18.122 8.77798L23.015 11.558C24.412 12.352 24.412 13.651 23.015 14.446L18.122 17.226L18.028 17.278Z" fill="url(#paint1_linear_1178_58)"/>
<g filter="url(#filter1_i_1178_58)">
<path d="M18.122 17.225L13.898 13.001L1.43599 25.464C1.89599 25.952 2.65699 26.012 3.51399 25.526L18.122 17.225Z" fill="url(#paint2_linear_1178_58)"/>
</g>
<path d="M18.122 8.77695L3.51399 0.476944C2.65699 -0.0100556 1.89599 0.0509446 1.43599 0.538945L13.899 13.0019L18.122 8.77695Z" fill="url(#paint3_linear_1178_58)"/>
</g>
<defs>
<filter id="filter0_ii_1178_58" x="0.972992" y="0.140869" width="23.0897" height="25.7208" filterUnits="userSpaceOnUse" color-interpolation-filters="sRGB">
<feFlood flood-opacity="0" result="BackgroundImageFix"/>
<feBlend mode="normal" in="SourceGraphic" in2="BackgroundImageFix" result="shape"/>
<feColorMatrix in="SourceAlpha" type="matrix" values="0 0 0 0 0 0 0 0 0 0 0 0 0 0 0 0 0 0 127 0" result="hardAlpha"/>
<feOffset dy="-0.15"/>
<feComposite in2="hardAlpha" operator="arithmetic" k2="-1" k3="1"/>
<feColorMatrix type="matrix" values="0 0 0 0 0 0 0 0 0 0 0 0 0 0 0 0 0 0 0.12 0"/>
<feBlend mode="normal" in2="shape" result="effect1_innerShadow_1178_58"/>
<feColorMatrix in="SourceAlpha" type="matrix" values="0 0 0 0 0 0 0 0 0 0 0 0 0 0 0 0 0 0 127 0" result="hardAlpha"/>
<feOffset dy="0.15"/>
<feComposite in2="hardAlpha" operator="arithmetic" k2="-1" k3="1"/>
<feColorMatrix type="matrix" values="0 0 0 0 1 0 0 0 0 1 0 0 0 0 1 0 0 0 0.25 0"/>
<feBlend mode="normal" in2="effect1_innerShadow_1178_58" result="effect2_innerShadow_1178_58"/>
</filter>
<filter id="filter1_i_1178_58" x="1.43599" y="13.001" width="16.686" height="12.8607" filterUnits="userSpaceOnUse" color-interpolation-filters="sRGB">
<feFlood flood-opacity="0" result="BackgroundImageFix"/>
<feBlend mode="normal" in="SourceGraphic" in2="BackgroundImageFix" result="shape"/>
<feColorMatrix in="SourceAlpha" type="matrix" values="0 0 0 0 0 0 0 0 0 0 0 0 0 0 0 0 0 0 127 0" result="hardAlpha"/>
<feOffset dy="-0.15"/>
<feComposite in2="hardAlpha" operator="arithmetic" k2="-1" k3="1"/>
<feColorMatrix type="matrix" values="0 0 0 0 0 0 0 0 0 0 0 0 0 0 0 0 0 0 0.08 0"/>
<feBlend mode="normal" in2="shape" result="effect1_innerShadow_1178_58"/>
</filter>
<linearGradient id="paint0_linear_1178_58" x1="12.8008" y1="1.70897" x2="-3.98121" y2="18.491" gradientUnits="userSpaceOnUse">
<stop stop-color="#00A0FF"/>
<stop offset="0.0066" stop-color="#00A1FF"/>
<stop offset="0.2601" stop-color="#00BEFF"/>
<stop offset="0.5122" stop-color="#00D2FF"/>
<stop offset="0.7604" stop-color="#00DFFF"/>
<stop offset="1" stop-color="#00E3FF"/>
</linearGradient>
<linearGradient id="paint1_linear_1178_58" x1="24.8335" y1="13.001" x2="0.637588" y2="13.001" gradientUnits="userSpaceOnUse">
<stop stop-color="#FFE000"/>
<stop offset="0.4087" stop-color="#FFBD00"/>
<stop offset="0.7754" stop-color="#FFA500"/>
<stop offset="1" stop-color="#FF9C00"/>
</linearGradient>
<linearGradient id="paint2_linear_1178_58" x1="15.8281" y1="15.2949" x2="-6.93041" y2="38.0534" gradientUnits="userSpaceOnUse">
<stop stop-color="#FF3A44"/>
<stop offset="1" stop-color="#C31162"/>
</linearGradient>
<linearGradient id="paint3_linear_1178_58" x1="-1.70261" y1="-6.82326" x2="8.45969" y2="3.33905" gradientUnits="userSpaceOnUse">
<stop stop-color="#32A071"/>
<stop offset="0.0685" stop-color="#2DA771"/>
<stop offset="0.4762" stop-color="#15CF74"/>
<stop offset="0.8009" stop-color="#06E775"/>
<stop offset="1" stop-color="#00F076"/>
</linearGradient>
</defs>
</svg>
