<?xml version="1.0" encoding="utf-8"?><svg viewBox="0 0 200 40" xmlns="http://www.w3.org/2000/svg" xmlns:xlink="http://www.w3.org/1999/xlink"><style>:root>svg{display:none}:root>svg:target{display:block}</style><svg fill="none" viewBox="0 0 120 40" id="app_store" xmlns="http://www.w3.org/2000/svg"><path d="M0 10.5c0-3.262 0-4.892.533-6.179A7 7 0 014.32.533C5.608 0 7.238 0 10.5 0h99c3.262 0 4.892 0 6.179.533a6.998 6.998 0 013.788 3.788C120 5.608 120 7.238 120 10.5v19c0 3.262 0 4.892-.533 6.179a6.999 6.999 0 01-3.788 3.788c-1.287.533-2.917.533-6.179.533h-99c-3.262 0-4.892 0-6.179-.533A7 7 0 01.533 35.68C0 34.392 0 32.762 0 29.5v-19z" fill="#31352B"/><path d="M81.526 19.201v2.291H80.09v1.502h1.436V28.1c0 1.744.788 2.44 2.772 2.44.349 0 .681-.04.971-.09v-1.486c-.249.025-.406.041-.68.041-.888 0-1.278-.415-1.278-1.361v-4.649h1.958v-1.502H83.31v-2.291h-1.784zM90.323 30.664c2.64 0 4.259-1.768 4.259-4.698 0-2.914-1.627-4.69-4.259-4.69-2.64 0-4.266 1.776-4.266 4.69 0 2.93 1.618 4.698 4.266 4.698zm0-1.585c-1.552 0-2.423-1.137-2.423-3.113 0-1.959.871-3.104 2.423-3.104 1.544 0 2.424 1.145 2.424 3.104 0 1.967-.88 3.113-2.424 3.113zM95.967 30.49h1.784v-5.337c0-1.27.955-2.125 2.308-2.125.315 0 .847.058.996.108v-1.76c-.191-.05-.531-.075-.797-.075-1.179 0-2.183.648-2.44 1.536h-.133V21.45h-1.718v9.039zM105.486 22.795c1.32 0 2.183.922 2.225 2.341h-4.566c.1-1.411 1.021-2.34 2.341-2.34zm2.217 5.255c-.332.705-1.071 1.095-2.15 1.095-1.428 0-2.349-1.004-2.408-2.59v-.1h6.384v-.622c0-2.839-1.519-4.557-4.034-4.557-2.549 0-4.167 1.835-4.167 4.723 0 2.889 1.585 4.665 4.175 4.665 2.067 0 3.511-.996 3.918-2.614h-1.718zM69.822 27.152c.138 2.22 1.988 3.64 4.74 3.64 2.943 0 4.784-1.49 4.784-3.864 0-1.867-1.05-2.9-3.596-3.493l-1.368-.335c-1.617-.379-2.271-.887-2.271-1.773 0-1.118 1.015-1.85 2.538-1.85 1.445 0 2.443.715 2.624 1.859h1.876c-.112-2.09-1.954-3.562-4.474-3.562-2.71 0-4.517 1.471-4.517 3.682 0 1.824 1.024 2.908 3.27 3.433l1.6.387c1.643.387 2.365.955 2.365 1.902 0 1.1-1.135 1.901-2.684 1.901-1.66 0-2.813-.748-2.977-1.927h-1.91zM51.335 21.301c-1.229 0-2.291.614-2.839 1.644h-.133V21.45h-1.718v12.044h1.785V29.12h.14c.474.955 1.495 1.52 2.782 1.52 2.282 0 3.735-1.802 3.735-4.674 0-2.872-1.453-4.665-3.752-4.665zm-.506 7.736c-1.495 0-2.432-1.178-2.432-3.063 0-1.892.938-3.07 2.44-3.07 1.51 0 2.415 1.153 2.415 3.062 0 1.918-.904 3.071-2.423 3.071zM61.332 21.301c-1.229 0-2.291.614-2.84 1.644h-.132V21.45h-1.718v12.044h1.784V29.12h.142c.473.955 1.494 1.52 2.78 1.52 2.283 0 3.736-1.802 3.736-4.674 0-2.872-1.453-4.665-3.752-4.665zm-.507 7.736c-1.494 0-2.432-1.178-2.432-3.063 0-1.892.938-3.07 2.44-3.07 1.511 0 2.416 1.153 2.416 3.062 0 1.918-.905 3.071-2.424 3.071zM43.443 30.49h2.048l-4.483-12.415h-2.073L34.452 30.49h1.98l1.143-3.295h4.732l1.136 3.295zm-3.57-10.16h.146l1.798 5.247h-3.751l1.806-5.248zM35.651 8.71v5.99h2.162c1.785 0 2.819-1.1 2.819-3.013 0-1.885-1.042-2.976-2.819-2.976h-2.162zm.93.848h1.129c1.24 0 1.975.788 1.975 2.141 0 1.374-.722 2.154-1.975 2.154h-1.13V9.558zM43.797 14.787c1.32 0 2.129-.884 2.129-2.349 0-1.457-.814-2.345-2.13-2.345-1.32 0-2.133.888-2.133 2.345 0 1.465.81 2.35 2.134 2.35zm0-.793c-.776 0-1.212-.568-1.212-1.556 0-.98.436-1.552 1.212-1.552.772 0 1.212.573 1.212 1.552 0 .984-.44 1.556-1.212 1.556zM52.818 10.18h-.892l-.806 3.45h-.07l-.93-3.45h-.855l-.93 3.45h-.066l-.81-3.45h-.904L47.8 14.7h.917l.93-3.329h.07l.934 3.329h.926l1.241-4.52zM53.846 14.7h.892v-2.644c0-.705.42-1.145 1.079-1.145.66 0 .975.36.975 1.087V14.7h.893v-2.926c0-1.075-.556-1.681-1.565-1.681-.68 0-1.129.303-1.349.805h-.066v-.718h-.86v4.52zM59.09 14.7h.892V8.416h-.892V14.7zM63.338 14.787c1.32 0 2.13-.884 2.13-2.349 0-1.457-.814-2.345-2.13-2.345-1.32 0-2.133.888-2.133 2.345 0 1.465.81 2.35 2.133 2.35zm0-.793c-.776 0-1.212-.568-1.212-1.556 0-.98.436-1.552 1.212-1.552.772 0 1.212.573 1.212 1.552 0 .984-.44 1.556-1.212 1.556zM68.126 14.023c-.485 0-.838-.236-.838-.643 0-.398.282-.61.905-.652l1.104-.07v.378c0 .56-.498.987-1.17.987zm-.228.752c.594 0 1.087-.258 1.357-.71h.07v.635h.86v-3.088c0-.954-.64-1.519-1.772-1.519-1.025 0-1.756.498-1.847 1.274h.863c.1-.32.444-.502.942-.502.61 0 .926.27.926.747v.39l-1.225.07c-1.075.067-1.68.536-1.68 1.35 0 .826.634 1.353 1.506 1.353zM73.213 14.775c.623 0 1.15-.295 1.42-.789h.07v.714h.855V8.416h-.892v2.482h-.067c-.245-.498-.768-.793-1.386-.793-1.141 0-1.876.905-1.876 2.333 0 1.432.726 2.337 1.876 2.337zm.253-3.869c.747 0 1.216.594 1.216 1.536 0 .946-.465 1.532-1.216 1.532-.755 0-1.208-.577-1.208-1.536 0-.95.457-1.532 1.208-1.532zM81.344 14.787c1.32 0 2.13-.884 2.13-2.349 0-1.457-.814-2.345-2.13-2.345-1.32 0-2.133.888-2.133 2.345 0 1.465.81 2.35 2.133 2.35zm0-.793c-.776 0-1.212-.568-1.212-1.556 0-.98.436-1.552 1.212-1.552.772 0 1.212.573 1.212 1.552 0 .984-.44 1.556-1.212 1.556zM84.655 14.7h.892v-2.644c0-.705.42-1.145 1.08-1.145.66 0 .975.36.975 1.087V14.7h.892v-2.926c0-1.075-.556-1.681-1.565-1.681-.68 0-1.129.303-1.349.805h-.066v-.718h-.86v4.52zM92.604 9.055v1.146h-.718v.751h.718v2.553c0 .871.394 1.22 1.386 1.22.174 0 .34-.02.485-.046v-.743c-.124.013-.203.021-.34.021-.444 0-.64-.208-.64-.68v-2.325h.98v-.751h-.98V9.055h-.891zM95.673 14.7h.893v-2.64c0-.684.406-1.145 1.137-1.145.63 0 .967.365.967 1.087V14.7h.892v-2.918c0-1.075-.593-1.685-1.556-1.685-.68 0-1.158.303-1.378.81h-.07v-2.49h-.885V14.7zM102.781 10.852c.66 0 1.092.461 1.113 1.17h-2.283c.05-.705.51-1.17 1.17-1.17zm1.108 2.628c-.166.352-.535.548-1.075.548-.713 0-1.174-.503-1.203-1.295v-.05h3.191v-.311c0-1.42-.759-2.279-2.017-2.279-1.274 0-2.083.917-2.083 2.362 0 1.444.793 2.332 2.087 2.332 1.034 0 1.756-.498 1.959-1.307h-.859zM24.769 20.3a4.989 4.989 0 012.357-4.151 5.128 5.128 0 00-3.992-2.158c-1.679-.176-3.307 1.005-4.163 1.005-.872 0-2.19-.987-3.608-.958a5.359 5.359 0 00-4.473 2.728c-1.934 3.348-.491 8.27 1.361 10.976.927 1.325 2.01 2.805 3.428 2.753 1.387-.058 1.905-.885 3.58-.885 1.658 0 2.144.885 3.59.852 1.489-.024 2.426-1.332 3.32-2.67a10.96 10.96 0 001.52-3.092 4.824 4.824 0 01-2.92-4.4zM22.037 12.211a4.872 4.872 0 001.115-3.49 4.957 4.957 0 00-3.208 1.66 4.678 4.678 0 00-1.143 3.36 4.148 4.148 0 003.236-1.53z" fill="#fff"/><path d="M4.321 39.467l-.382.924.382-.924zm115.146-3.788l.924.383-.924-.383zm-3.788 3.788l.382.924-.382-.924zm0-38.934l.382-.924-.382.924zm3.788 3.788l.924-.382-.924.382zM10.5 1h99v-2h-99v2zM119 10.5v19h2v-19h-2zM109.5 39h-99v2h99v-2zM1 29.5v-19h-2v19h2zm9.5 9.5c-1.644 0-2.828 0-3.762-.064-.925-.063-1.533-.185-2.034-.393l-.765 1.848c.785.325 1.636.47 2.663.54 1.018.07 2.28.069 3.898.069v-2zM-1 29.5c0 1.617 0 2.88.069 3.898.07 1.027.215 1.878.54 2.663l1.848-.765c-.208-.5-.33-1.109-.393-2.034C1.001 32.328 1 31.145 1 29.5h-2zm5.704 9.043a6 6 0 01-3.247-3.247l-1.848.766a8 8 0 004.33 4.329l.765-1.848zM119 29.5c0 1.645-.001 2.828-.064 3.762-.063.925-.185 1.533-.393 2.034l1.848.766c.325-.786.47-1.637.54-2.664.07-1.018.069-2.28.069-3.898h-2zM109.5 41c1.617 0 2.88 0 3.898-.069 1.027-.07 1.878-.215 2.663-.54l-.765-1.848c-.501.208-1.109.33-2.034.393-.934.063-2.118.064-3.762.064v2zm9.043-5.704a6 6 0 01-3.247 3.247l.765 1.848a7.998 7.998 0 004.33-4.33l-1.848-.765zM109.5 1c1.644 0 2.828 0 3.762.064.925.063 1.533.185 2.034.393l.765-1.848c-.785-.325-1.636-.47-2.663-.54C112.38-1.001 111.117-1 109.5-1v2zm11.5 9.5c0-1.617.001-2.88-.069-3.898-.07-1.027-.215-1.878-.54-2.663l-1.848.765c.208.5.33 1.109.393 2.034.063.934.064 2.118.064 3.762h2zm-5.704-9.043a6 6 0 013.247 3.247l1.848-.765a7.998 7.998 0 00-4.33-4.33l-.765 1.848zM10.5-1c-1.617 0-2.88 0-3.898.069-1.027.07-1.878.215-2.663.54l.765 1.848c.5-.208 1.109-.33 2.034-.393C7.672 1.001 8.856 1 10.5 1v-2zM1 10.5c0-1.644 0-2.828.064-3.762.063-.925.185-1.533.393-2.034l-1.848-.765c-.325.785-.47 1.636-.54 2.663C-1.001 7.62-1 8.882-1 10.5h2zM3.939-.391a8 8 0 00-4.33 4.33l1.848.765a6 6 0 013.247-3.247L3.939-.391z" fill="#C2C2C2"/></svg><svg fill="none" viewBox="0 0 14 13" id="arrow-restaurant" xmlns="http://www.w3.org/2000/svg"><path d="M8.121.293a1 1 0 000 1.414L11.413 5 1 5.007a1 1 0 000 2L11.414 7l-3.293 3.293a1 1 0 101.414 1.414l3.586-3.585a3 3 0 000-4.243L9.535.293a1 1 0 00-1.414 0z" fill="#fff"/></svg><svg fill="none" viewBox="0 0 135 40" id="google_play" xmlns="http://www.w3.org/2000/svg"><path d="M0 5a5 5 0 015-5h125a5 5 0 015 5v30a5 5 0 01-5 5H5a5 5 0 01-5-5V5z" fill="#31352B"/><path d="M68.136 21.751c-2.352 0-4.269 1.79-4.269 4.253 0 2.45 1.917 4.253 4.269 4.253 2.353 0 4.27-1.804 4.27-4.253-.001-2.464-1.918-4.253-4.27-4.253zm0 6.832c-1.289 0-2.4-1.063-2.4-2.578 0-1.53 1.112-2.578 2.4-2.578 1.289 0 2.4 1.047 2.4 2.578 0 1.514-1.111 2.578-2.4 2.578zm-9.314-6.832c-2.352 0-4.269 1.79-4.269 4.253 0 2.45 1.917 4.253 4.269 4.253 2.353 0 4.27-1.804 4.27-4.253 0-2.464-1.917-4.253-4.27-4.253zm0 6.832c-1.289 0-2.4-1.063-2.4-2.578 0-1.53 1.112-2.578 2.4-2.578 1.289 0 2.4 1.047 2.4 2.578.001 1.514-1.111 2.578-2.4 2.578zm-11.078-5.526v1.804h4.318c-.129 1.015-.467 1.756-.983 2.271-.628.628-1.611 1.321-3.335 1.321-2.658 0-4.736-2.143-4.736-4.8 0-2.659 2.078-4.802 4.736-4.802 1.434 0 2.481.564 3.254 1.29l1.273-1.274c-1.08-1.03-2.513-1.82-4.527-1.82-3.641 0-6.702 2.964-6.702 6.605 0 3.641 3.061 6.605 6.702 6.605 1.965 0 3.448-.645 4.607-1.853 1.192-1.192 1.563-2.868 1.563-4.22 0-.419-.032-.806-.097-1.128h-6.073v.001zm45.308 1.401c-.354-.95-1.434-2.707-3.641-2.707-2.191 0-4.012 1.724-4.012 4.253 0 2.384 1.805 4.253 4.221 4.253 1.949 0 3.077-1.192 3.545-1.885l-1.45-.967c-.483.71-1.144 1.176-2.095 1.176-.95 0-1.627-.435-2.062-1.289l5.687-2.352-.193-.482zm-5.8 1.418c-.048-1.644 1.273-2.48 2.224-2.48.741 0 1.369.37 1.579.901l-3.803 1.58zM82.629 30h1.868V17.5h-1.868V30zm-3.062-7.298h-.064c-.419-.5-1.225-.95-2.239-.95-2.127 0-4.076 1.868-4.076 4.27 0 2.383 1.949 4.236 4.076 4.236 1.015 0 1.82-.45 2.239-.966h.064v.612c0 1.627-.87 2.497-2.271 2.497-1.144 0-1.853-.82-2.143-1.514l-1.627.677c.467 1.127 1.707 2.513 3.77 2.513 2.191 0 4.044-1.289 4.044-4.43V22.01h-1.772v.692h-.001zm-2.142 5.881c-1.289 0-2.368-1.08-2.368-2.562 0-1.499 1.079-2.594 2.368-2.594 1.272 0 2.271 1.095 2.271 2.594 0 1.482-.999 2.562-2.271 2.562zM101.806 17.5h-4.471V30H99.2v-4.736h2.605c2.068 0 4.102-1.497 4.102-3.882s-2.033-3.883-4.101-3.883zm.048 6.025H99.2V19.24h2.654c1.395 0 2.187 1.155 2.187 2.143 0 .968-.792 2.142-2.187 2.142zm11.532-1.795c-1.351 0-2.75.595-3.329 1.914l1.656.691c.354-.69 1.014-.917 1.705-.917.965 0 1.946.58 1.962 1.608v.13c-.338-.194-1.062-.483-1.946-.483-1.785 0-3.603.981-3.603 2.814 0 1.673 1.464 2.75 3.104 2.75 1.254 0 1.946-.563 2.38-1.223h.064v.965h1.802v-4.793c.001-2.218-1.657-3.456-3.795-3.456zm-.226 6.851c-.61 0-1.463-.306-1.463-1.062 0-.965 1.062-1.335 1.979-1.335.819 0 1.206.177 1.704.418a2.262 2.262 0 01-2.22 1.98zm10.583-6.578l-2.139 5.42h-.064l-2.22-5.42h-2.01l3.329 7.575-1.898 4.214h1.946l5.131-11.789h-2.075zM106.937 30h1.865V17.5h-1.865V30zM47.418 10.243c0 .838-.248 1.505-.745 2.003-.564.592-1.3.888-2.204.888-.866 0-1.603-.3-2.208-.9-.606-.601-.909-1.345-.909-2.233 0-.89.303-1.633.91-2.233.604-.601 1.341-.901 2.207-.901.43 0 .841.084 1.231.25.391.169.704.392.938.67l-.527.529c-.397-.475-.944-.712-1.643-.712-.632 0-1.178.222-1.639.666-.461.444-.69 1.02-.69 1.73 0 .709.229 1.286.69 1.73a2.282 2.282 0 001.639.666c.67 0 1.23-.223 1.676-.67.29-.291.458-.696.503-1.215h-2.179V9.79h2.907c.03.157.043.308.043.453zM52.028 7.737h-2.732v1.902h2.464v.721h-2.464v1.902h2.732V13h-3.503V7h3.503v.737zM55.279 13h-.771V7.737h-1.676V7h4.123v.737h-1.676V13zM59.938 13V7h.771v6h-.771zM64.128 13h-.77V7.737H61.68V7h4.123v.737h-1.676V13zM73.609 12.225c-.59.606-1.323.909-2.2.909-.877 0-1.61-.303-2.2-.909-.59-.606-.883-1.348-.883-2.225s.294-1.619.884-2.225c.589-.606 1.322-.91 2.199-.91.872 0 1.604.305 2.196.914.592.609.888 1.349.888 2.221 0 .877-.295 1.619-.884 2.225zm-3.83-.503a2.2 2.2 0 001.63.674c.643 0 1.187-.225 1.63-.674.444-.45.667-1.024.667-1.722s-.223-1.272-.667-1.722a2.199 2.199 0 00-1.63-.674c-.643 0-1.186.225-1.63.674-.443.45-.666 1.024-.666 1.722s.223 1.272.666 1.722zM75.575 13V7h.938l2.916 4.667h.033l-.033-1.156V7h.77v6h-.804l-3.051-4.894h-.033l.033 1.156V13h-.77z" fill="#fff"/><path d="M47.418 10.243c0 .838-.248 1.505-.745 2.003-.564.592-1.3.888-2.204.888-.866 0-1.603-.3-2.208-.9-.606-.601-.909-1.345-.909-2.233 0-.89.303-1.633.91-2.233.604-.601 1.341-.901 2.207-.901.43 0 .841.084 1.231.25.391.169.704.392.938.67l-.527.529c-.397-.475-.944-.712-1.643-.712-.632 0-1.178.222-1.639.666-.461.444-.69 1.02-.69 1.73 0 .709.229 1.286.69 1.73a2.282 2.282 0 001.639.666c.67 0 1.23-.223 1.676-.67.29-.291.458-.696.503-1.215h-2.179V9.79h2.907c.03.157.043.308.043.453zM52.028 7.737h-2.732v1.902h2.464v.721h-2.464v1.902h2.732V13h-3.503V7h3.503v.737zM55.279 13h-.771V7.737h-1.676V7h4.123v.737h-1.676V13zM59.938 13V7h.771v6h-.771zM64.128 13h-.77V7.737H61.68V7h4.123v.737h-1.676V13zM73.609 12.225c-.59.606-1.323.909-2.2.909-.877 0-1.61-.303-2.2-.909-.59-.606-.883-1.348-.883-2.225s.294-1.619.884-2.225c.589-.606 1.322-.91 2.199-.91.872 0 1.604.305 2.196.914.592.609.888 1.349.888 2.221 0 .877-.295 1.619-.884 2.225zm-3.83-.503a2.2 2.2 0 001.63.674c.643 0 1.187-.225 1.63-.674.444-.45.667-1.024.667-1.722s-.223-1.272-.667-1.722a2.199 2.199 0 00-1.63-.674c-.643 0-1.186.225-1.63.674-.443.45-.666 1.024-.666 1.722s.223 1.272.666 1.722zM75.575 13V7h.938l2.916 4.667h.033l-.033-1.156V7h.77v6h-.804l-3.051-4.894h-.033l.033 1.156V13h-.77z" stroke="#fff" stroke-width=".2" stroke-miterlimit="10"/><g filter="url(#cfilter0_ii_0:545)"><path d="M10.436 7.538c-.291.308-.463.786-.463 1.405v22.116c0 .62.172 1.097.463 1.405l.074.072 12.389-12.389v-.292L10.51 7.465l-.074.073z" fill="url(#cpaint0_linear_0:545)"/><path d="M27.028 24.278l-4.129-4.131v-.292l4.13-4.13.093.053 4.893 2.78c1.397.794 1.397 2.093 0 2.888l-4.893 2.78-.094.052z" fill="url(#cpaint1_linear_0:545)"/><g filter="url(#cfilter1_i_0:545)"><path d="M27.122 24.225l-4.224-4.224-12.462 12.463c.46.488 1.221.548 2.078.062l14.608-8.301z" fill="url(#cpaint2_linear_0:545)"/></g><path d="M27.122 15.777l-14.608-8.3c-.857-.487-1.618-.426-2.078.062l12.463 12.463 4.223-4.225z" fill="url(#cpaint3_linear_0:545)"/></g><path d="M5 1h125v-2H5v2zm129 4v30h2V5h-2zm-4 34H5v2h125v-2zM1 35V5h-2v30h2zm4 4a4 4 0 01-4-4h-2a6 6 0 006 6v-2zm129-4a4 4 0 01-4 4v2a6 6 0 006-6h-2zm-4-34a4 4 0 014 4h2a6 6 0 00-6-6v2zM5-1a6 6 0 00-6 6h2a4 4 0 014-4v-2z" fill="#C2C2C2"/><defs><linearGradient id="cpaint0_linear_0:545" x1="21.801" y1="8.709" x2="5.019" y2="25.491" gradientUnits="userSpaceOnUse"><stop stop-color="#00A0FF"/><stop offset=".007" stop-color="#00A1FF"/><stop offset=".26" stop-color="#00BEFF"/><stop offset=".512" stop-color="#00D2FF"/><stop offset=".76" stop-color="#00DFFF"/><stop offset="1" stop-color="#00E3FF"/></linearGradient><linearGradient id="cpaint1_linear_0:545" x1="33.834" y1="20.001" x2="9.638" y2="20.001" gradientUnits="userSpaceOnUse"><stop stop-color="#FFE000"/><stop offset=".409" stop-color="#FFBD00"/><stop offset=".775" stop-color="orange"/><stop offset="1" stop-color="#FF9C00"/></linearGradient><linearGradient id="cpaint2_linear_0:545" x1="24.828" y1="22.295" x2="2.07" y2="45.053" gradientUnits="userSpaceOnUse"><stop stop-color="#FF3A44"/><stop offset="1" stop-color="#C31162"/></linearGradient><linearGradient id="cpaint3_linear_0:545" x1="7.297" y1=".177" x2="17.46" y2="10.339" gradientUnits="userSpaceOnUse"><stop stop-color="#32A071"/><stop offset=".069" stop-color="#2DA771"/><stop offset=".476" stop-color="#15CF74"/><stop offset=".801" stop-color="#06E775"/><stop offset="1" stop-color="#00F076"/></linearGradient><filter id="cfilter0_ii_0:545" x="9.973" y="7.141" width="23.09" height="25.721" filterUnits="userSpaceOnUse" color-interpolation-filters="sRGB"><feFlood flood-opacity="0" result="BackgroundImageFix"/><feBlend in="SourceGraphic" in2="BackgroundImageFix" result="shape"/><feColorMatrix in="SourceAlpha" values="0 0 0 0 0 0 0 0 0 0 0 0 0 0 0 0 0 0 127 0" result="hardAlpha"/><feOffset dy="-.15"/><feComposite in2="hardAlpha" operator="arithmetic" k2="-1" k3="1"/><feColorMatrix values="0 0 0 0 0 0 0 0 0 0 0 0 0 0 0 0 0 0 0.12 0"/><feBlend in2="shape" result="effect1_innerShadow_0:545"/><feColorMatrix in="SourceAlpha" values="0 0 0 0 0 0 0 0 0 0 0 0 0 0 0 0 0 0 127 0" result="hardAlpha"/><feOffset dy=".15"/><feComposite in2="hardAlpha" operator="arithmetic" k2="-1" k3="1"/><feColorMatrix values="0 0 0 0 1 0 0 0 0 1 0 0 0 0 1 0 0 0 0.25 0"/><feBlend in2="effect1_innerShadow_0:545" result="effect2_innerShadow_0:545"/></filter><filter id="cfilter1_i_0:545" x="10.436" y="20.001" width="16.686" height="12.861" filterUnits="userSpaceOnUse" color-interpolation-filters="sRGB"><feFlood flood-opacity="0" result="BackgroundImageFix"/><feBlend in="SourceGraphic" in2="BackgroundImageFix" result="shape"/><feColorMatrix in="SourceAlpha" values="0 0 0 0 0 0 0 0 0 0 0 0 0 0 0 0 0 0 127 0" result="hardAlpha"/><feOffset dy="-.15"/><feComposite in2="hardAlpha" operator="arithmetic" k2="-1" k3="1"/><feColorMatrix values="0 0 0 0 0 0 0 0 0 0 0 0 0 0 0 0 0 0 0.08 0"/><feBlend in2="shape" result="effect1_innerShadow_0:545"/></filter></defs></svg><svg fill="none" viewBox="0 0 200 39" id="logo" xmlns="http://www.w3.org/2000/svg"><path d="M10.593 31.33c-1.958 0-3.641-.297-5.049-.891-1.408-.594-2.475-1.375-3.201-2.343s-1.111-2.013-1.155-3.135c0-.198.066-.363.198-.495a.672.672 0 01.495-.198h2.937c.264 0 .462.055.594.165.154.088.297.242.429.462.22.748.726 1.375 1.518 1.881s1.87.759 3.234.759c1.562 0 2.739-.253 3.531-.759.792-.528 1.188-1.254 1.188-2.178 0-.616-.209-1.122-.627-1.518-.396-.396-1.001-.737-1.815-1.023-.792-.286-1.98-.638-3.564-1.056-2.596-.616-4.499-1.43-5.709-2.442-1.188-1.034-1.782-2.497-1.782-4.389 0-1.276.341-2.409 1.023-3.399.704-.99 1.705-1.771 3.003-2.343 1.32-.572 2.849-.858 4.587-.858 1.804 0 3.366.319 4.686.957 1.32.638 2.321 1.441 3.003 2.409.704.946 1.078 1.892 1.122 2.838a.672.672 0 01-.198.495.672.672 0 01-.495.198h-3.069c-.462 0-.781-.209-.957-.627-.132-.704-.572-1.287-1.32-1.749-.748-.484-1.672-.726-2.772-.726-1.232 0-2.2.231-2.904.693-.704.462-1.056 1.133-1.056 2.013 0 .616.176 1.122.528 1.518.352.396.902.748 1.65 1.056.77.308 1.87.649 3.3 1.023 1.936.44 3.476.935 4.62 1.485 1.166.55 2.024 1.243 2.574 2.079.55.836.825 1.903.825 3.201 0 1.408-.396 2.64-1.188 3.696-.77 1.034-1.87 1.826-3.3 2.376-1.408.55-3.036.825-4.884.825zM25.43 11.002a.764.764 0 01-.561-.231.764.764 0 01-.231-.561V7.834c0-.22.077-.407.23-.561a.764.764 0 01.562-.231h3.003c.22 0 .407.077.56.231a.719.719 0 01.265.561v2.376c0 .22-.077.407-.231.561a.804.804 0 01-.594.231H25.43zM25.562 31a.764.764 0 01-.561-.231.764.764 0 01-.231-.561V14.632c0-.22.077-.407.23-.561a.764.764 0 01.562-.231H28.3c.242 0 .429.077.56.231.155.132.232.319.232.561v15.576c0 .22-.077.407-.231.561-.132.154-.32.231-.561.231h-2.74zm10.12 0a.764.764 0 01-.561-.231.764.764 0 01-.231-.561V14.632c0-.22.077-.407.231-.561a.764.764 0 01.561-.231h2.574c.22 0 .407.077.561.231a.764.764 0 01.231.561v1.122c1.144-1.496 2.739-2.244 4.785-2.244 2.442 0 4.147.979 5.115 2.937.528-.88 1.276-1.584 2.244-2.112a6.24 6.24 0 013.135-.825c1.804 0 3.278.616 4.422 1.848 1.144 1.232 1.716 3.025 1.716 5.379v9.471c0 .22-.077.407-.231.561-.132.154-.319.231-.561.231h-2.706a.764.764 0 01-.561-.231.764.764 0 01-.231-.561v-9.207c0-1.386-.297-2.387-.891-3.003-.572-.638-1.342-.957-2.31-.957-.858 0-1.595.319-2.211.957-.594.638-.891 1.639-.891 3.003v9.207c0 .22-.077.407-.231.561a.764.764 0 01-.561.231h-2.706a.764.764 0 01-.561-.231.764.764 0 01-.231-.561v-9.207c0-1.386-.308-2.387-.924-3.003-.594-.638-1.353-.957-2.277-.957-.88 0-1.628.319-2.244.957-.594.638-.891 1.639-.891 3.003v9.207c0 .22-.077.407-.231.561a.764.764 0 01-.561.231h-2.772zm31.23 6.27a.764.764 0 01-.562-.231c-.154-.132-.23-.319-.23-.561V14.632c0-.242.076-.429.23-.561a.764.764 0 01.561-.231h2.607c.242 0 .43.077.561.231.154.132.231.319.231.561v1.32c1.232-1.628 2.992-2.442 5.28-2.442 2.222 0 3.927.704 5.115 2.112 1.188 1.386 1.826 3.267 1.914 5.643.022.264.033.649.033 1.155 0 .528-.01.924-.033 1.188-.088 2.31-.726 4.18-1.914 5.61-1.188 1.408-2.893 2.112-5.115 2.112-2.222 0-3.916-.781-5.082-2.343v7.491c0 .242-.077.429-.23.561-.133.154-.32.231-.562.231h-2.805zm7.457-9.471c2.376 0 3.641-1.463 3.795-4.389.022-.22.033-.55.033-.99 0-.44-.01-.77-.033-.99-.154-2.926-1.419-4.389-3.795-4.389-1.276 0-2.222.407-2.838 1.221-.616.814-.957 1.815-1.023 3.003l-.033 1.254.033 1.287c.044 1.1.385 2.046 1.023 2.838.66.77 1.606 1.155 2.838 1.155zM88.601 31a.764.764 0 01-.561-.231.764.764 0 01-.231-.561V8.362c0-.242.077-.429.23-.561a.764.764 0 01.562-.231h2.739c.242 0 .429.077.56.231.155.132.232.319.232.561v21.846c0 .22-.077.407-.231.561-.132.154-.32.231-.561.231H88.6zm16.719.33c-2.442 0-4.389-.704-5.84-2.112-1.43-1.43-2.19-3.432-2.278-6.006l-.033-.825.033-.825c.11-2.508.88-4.477 2.31-5.907 1.452-1.43 3.388-2.145 5.808-2.145 2.596 0 4.598.792 6.006 2.376 1.43 1.584 2.145 3.696 2.145 6.336v.693c0 .22-.077.407-.231.561a.804.804 0 01-.594.231H101.69v.264c.044 1.21.374 2.233.99 3.069.638.814 1.507 1.221 2.607 1.221 1.298 0 2.343-.506 3.135-1.518.198-.242.352-.396.462-.462.132-.066.319-.099.561-.099h2.838c.198 0 .363.066.495.198.154.11.231.253.231.429 0 .528-.319 1.155-.957 1.881-.616.704-1.507 1.32-2.673 1.848-1.166.528-2.519.792-4.059.792zm3.663-10.395v-.099c0-1.298-.33-2.343-.99-3.135-.638-.792-1.529-1.188-2.673-1.188-1.144 0-2.035.396-2.673 1.188-.638.792-.957 1.837-.957 3.135v.099h7.293z" fill="#FF6838"/><path d="M119.581 31a.764.764 0 01-.561-.231.764.764 0 01-.231-.561V8.725a.88.88 0 01.198-.594.804.804 0 01.594-.231h14.322c.242 0 .44.077.594.231a.804.804 0 01.231.594v2.31c0 .242-.077.44-.231.594a.88.88 0 01-.594.198H123.31v6.27h9.933c.242 0 .44.077.594.231a.804.804 0 01.231.594v2.31c0 .242-.077.44-.231.594a.88.88 0 01-.594.198h-9.933v8.184c0 .242-.077.44-.231.594a.88.88 0 01-.594.198h-2.904zm27.318.33c-2.574 0-4.565-.66-5.973-1.98-1.408-1.342-2.167-3.168-2.277-5.478l-.033-1.452.033-1.452c.11-2.288.88-4.103 2.31-5.445 1.43-1.342 3.41-2.013 5.94-2.013 2.53 0 4.51.671 5.94 2.013 1.43 1.342 2.2 3.157 2.31 5.445.022.264.033.748.033 1.452s-.011 1.188-.033 1.452c-.11 2.31-.869 4.136-2.277 5.478-1.408 1.32-3.399 1.98-5.973 1.98zm0-3.267c1.166 0 2.068-.363 2.706-1.089.638-.748.99-1.837 1.056-3.267.022-.22.033-.649.033-1.287 0-.638-.011-1.067-.033-1.287-.066-1.43-.418-2.508-1.056-3.234-.638-.748-1.54-1.122-2.706-1.122s-2.068.374-2.706 1.122c-.638.726-.99 1.804-1.056 3.234l-.033 1.287.033 1.287c.066 1.43.418 2.519 1.056 3.267.638.726 1.54 1.089 2.706 1.089zm20.949 3.267c-2.574 0-4.565-.66-5.973-1.98-1.408-1.342-2.167-3.168-2.277-5.478l-.033-1.452.033-1.452c.11-2.288.88-4.103 2.31-5.445 1.43-1.342 3.41-2.013 5.94-2.013 2.53 0 4.51.671 5.94 2.013 1.43 1.342 2.2 3.157 2.31 5.445.022.264.033.748.033 1.452s-.011 1.188-.033 1.452c-.11 2.31-.869 4.136-2.277 5.478-1.408 1.32-3.399 1.98-5.973 1.98zm0-3.267c1.166 0 2.068-.363 2.706-1.089.638-.748.99-1.837 1.056-3.267.022-.22.033-.649.033-1.287 0-.638-.011-1.067-.033-1.287-.066-1.43-.418-2.508-1.056-3.234-.638-.748-1.54-1.122-2.706-1.122s-2.068.374-2.706 1.122c-.638.726-.99 1.804-1.056 3.234l-.033 1.287.033 1.287c.066 1.43.418 2.519 1.056 3.267.638.726 1.54 1.089 2.706 1.089zm19.727 3.267c-2.222 0-3.927-.715-5.115-2.145-1.188-1.43-1.826-3.333-1.914-5.709l-.033-1.089.033-1.056c.066-2.31.693-4.191 1.881-5.643 1.21-1.452 2.926-2.178 5.148-2.178 2.134 0 3.828.726 5.082 2.178V8.362c0-.242.077-.429.231-.561a.764.764 0 01.561-.231h2.805c.242 0 .429.077.561.231.154.132.231.319.231.561v21.846c0 .22-.077.407-.231.561-.132.154-.319.231-.561.231h-2.607a.764.764 0 01-.561-.231.764.764 0 01-.231-.561v-1.221c-1.254 1.562-3.014 2.343-5.28 2.343zm1.221-3.531c1.276 0 2.222-.407 2.838-1.221.616-.814.957-1.815 1.023-3.003.022-.264.033-.693.033-1.287 0-.572-.011-.99-.033-1.254-.044-1.1-.396-2.035-1.056-2.805-.638-.792-1.573-1.188-2.805-1.188-2.376 0-3.641 1.463-3.795 4.389l-.033.99.033.99c.154 2.926 1.419 4.389 3.795 4.389z" fill="#363853"/></svg><svg fill="none" viewBox="0 0 40 40" id="next-arrow-slideer" xmlns="http://www.w3.org/2000/svg"><circle cx="20" cy="20" r="18.5" fill="#fff" fill-opacity=".01" stroke="#C2C2C2" stroke-width="3"/><path d="M18.635 11.45l7.746 7.747c.601.604.601 1.58 0 2.184l-7.746 7.746a1.548 1.548 0 01-2.184-2.184l6.646-6.646-6.646-6.662a1.548 1.548 0 010-2.184 1.548 1.548 0 012.184 0z" fill="#C2C2C2"/></svg><svg fill="none" viewBox="0 0 40 40" id="prev-arrow-slideer" xmlns="http://www.w3.org/2000/svg"><circle cx="20" cy="20" r="18.5" fill="#fff" fill-opacity=".01" stroke="#C2C2C2" stroke-width="3"/><path d="M21.197 29.05l-7.746-7.747a1.548 1.548 0 010-2.184l7.746-7.746a1.548 1.548 0 012.184 2.184l-6.646 6.646 6.646 6.662c.601.604.601 1.58 0 2.184a1.548 1.548 0 01-2.184 0z" fill="#C2C2C2"/></svg><svg fill="none" viewBox="0 0 24 20" id="quotes_end" xmlns="http://www.w3.org/2000/svg"><path d="M18.783 9.565c-1.276.116-2.32.609-3.13 1.479-.812.869-1.218 1.97-1.218 3.304 0 1.45.435 2.637 1.304 3.565.87.87 1.971 1.304 3.305 1.304 1.507 0 2.724-.55 3.652-1.652.87-1.101 1.304-2.811 1.304-5.13C24 7.97 22.522 4.115 19.565.87c-.58-.58-1.246-.87-2-.87-.638 0-1.188.232-1.652.696-.464.405-.696.898-.696 1.478 0 .638.232 1.188.696 1.652 1.507 1.565 2.464 3.478 2.87 5.74zm-14.435 0c-1.276.116-2.319.609-3.13 1.479C.405 11.912 0 13.014 0 14.348c0 1.45.435 2.637 1.304 3.565.87.87 1.971 1.304 3.305 1.304 1.507 0 2.724-.55 3.652-1.652.87-1.101 1.304-2.811 1.304-5.13C9.565 7.97 8.087 4.115 5.13.87 4.55.29 3.884 0 3.13 0c-.637 0-1.188.232-1.652.696-.464.405-.695.898-.695 1.478 0 .638.231 1.188.695 1.652 1.508 1.565 2.464 3.478 2.87 5.74z" fill="#C2C2C2"/></svg><svg fill="none" viewBox="0 0 24 20" id="quotes_start" xmlns="http://www.w3.org/2000/svg"><path d="M5.217 9.565c1.276.116 2.32.609 3.13 1.479.812.869 1.218 1.97 1.218 3.304 0 1.45-.435 2.637-1.304 3.565-.87.87-1.971 1.304-3.304 1.304-1.508 0-2.725-.55-3.653-1.652C.434 16.464 0 14.754 0 12.435 0 7.97 1.478 4.115 4.435.87c.58-.58 1.246-.87 2-.87.637 0 1.188.232 1.652.696.464.405.696.898.696 1.478 0 .638-.232 1.188-.696 1.652-1.507 1.565-2.464 3.478-2.87 5.74zm14.435 0c1.275.116 2.319.609 3.13 1.479.812.869 1.218 1.97 1.218 3.304 0 1.45-.435 2.637-1.304 3.565-.87.87-1.971 1.304-3.305 1.304-1.507 0-2.724-.55-3.652-1.652-.87-1.101-1.304-2.811-1.304-5.13 0-4.464 1.478-8.32 4.435-11.565.58-.58 1.246-.87 2-.87.637 0 1.188.232 1.652.696.463.405.695.898.695 1.478 0 .638-.232 1.188-.695 1.652-1.507 1.565-2.464 3.478-2.87 5.74z" fill="#C2C2C2"/></svg><svg fill="none" viewBox="0 0 22 22" id="timer" xmlns="http://www.w3.org/2000/svg"><g opacity=".9" fill="#31352B"><path d="M11.575 2.54v-.959a.611.611 0 00-1.222 0v.965c-4.803.333-8.609 4.344-8.609 9.23 0 5.102 4.153 9.254 9.256 9.254 5.103 0 9.256-4.152 9.256-9.255 0-4.91-3.845-8.937-8.681-9.235zM11 19.808c-4.43 0-8.033-3.604-8.033-8.033 0-4.43 3.603-8.033 8.033-8.033s8.033 3.604 8.033 8.033c0 4.429-3.603 8.033-8.033 8.033z"/><path d="M7.863 17.322a6.39 6.39 0 01-3.234-5.547.305.305 0 10-.611 0 7.004 7.004 0 003.544 6.079.306.306 0 00.301-.532zM9.53 18.16a6.94 6.94 0 01-.353-.102.306.306 0 00-.186.582c.127.04.255.078.385.11a.305.305 0 00.153-.59zM18.885 5.728a.611.611 0 00.863-.865L18.162 3.28a.61.61 0 10-.863.865l1.586 1.583zM11.575 11.661V6.776a.611.611 0 00-1.223 0v5.15c0 .168.088.328.21.443l1.789 1.672a.61.61 0 00.657.117.61.61 0 00.163-1.006l-1.596-1.49z"/></g></svg></svg>