<?xml version="1.0" standalone="no"?>
<!DOCTYPE svg PUBLIC "-//W3C//DTD SVG 20010904//EN"
 "http://www.w3.org/TR/2001/REC-SVG-20010904/DTD/svg10.dtd">
<svg version="1.0" xmlns="http://www.w3.org/2000/svg"
 width="512.000000pt" height="512.000000pt" viewBox="0 0 512.000000 512.000000"
 preserveAspectRatio="xMidYMid meet">
<metadata>
Created by potrace 1.14, written by Peter Selinger 2001-2017
</metadata>
<g transform="translate(0.000000,512.000000) scale(0.100000,-0.100000)"
fill="#000000" stroke="none">
<path d="M0 2560 l0 -2560 2560 0 2560 0 0 2560 0 2560 -2560 0 -2560 0 0
-2560z m2760 1318 c348 -48 642 -264 735 -541 34 -103 34 -159 -2 -187 -26
-20 -36 -21 -234 -18 -239 3 -233 1 -268 98 -39 106 -146 189 -291 226 -97 25
-303 16 -387 -17 -142 -55 -203 -134 -203 -261 0 -82 18 -129 68 -181 80 -83
211 -135 577 -231 407 -106 578 -184 703 -320 97 -106 142 -239 142 -416 0
-172 -47 -312 -147 -435 -184 -227 -545 -351 -969 -331 -533 24 -898 270 -956
641 -11 70 -10 77 9 103 l20 27 207 3 c171 2 210 0 229 -13 13 -8 40 -49 61
-90 59 -117 158 -192 306 -232 88 -23 336 -23 433 0 122 30 224 97 267 176 21
41 31 126 20 177 -32 145 -139 207 -555 320 -488 134 -650 205 -778 344 -108
116 -152 246 -151 445 0 115 3 139 27 209 47 133 106 218 215 305 223 179 554
250 922 199z"/>
</g>
</svg>
