<svg width="18" height="18" viewBox="0 0 18 18" fill="none" xmlns="http://www.w3.org/2000/svg">
<path d="M1 1L2.79892 1.31923L3.63179 11.4928C3.69838 12.3237 4.37557 12.9612 5.18855 12.9586H14.6234C15.3992 12.9603 16.0573 12.3751 16.1672 11.5877L16.9879 5.77243C17.0796 5.12245 16.6394 4.51947 16.0063 4.42548C15.9509 4.4175 3.08779 4.41306 3.08779 4.41306" stroke="white" stroke-width="1.5" stroke-linecap="round" stroke-linejoin="round"/>
<path d="M10.8379 7.69104H13.2361" stroke="white" stroke-width="1.5" stroke-linecap="round" stroke-linejoin="round"/>
<path fill-rule="evenodd" clip-rule="evenodd" d="M4.80908 16.0325C5.06939 16.0325 5.27954 16.2493 5.27954 16.5158C5.27954 16.7832 5.06939 16.9999 4.80908 16.9999C4.54877 16.9999 4.33862 16.7832 4.33862 16.5158C4.33862 16.2493 4.54877 16.0325 4.80908 16.0325Z" fill="#363853" stroke="white" stroke-width="1.5" stroke-linecap="round" stroke-linejoin="round"/>
<path fill-rule="evenodd" clip-rule="evenodd" d="M14.5649 16.0325C14.8252 16.0325 15.0363 16.2493 15.0363 16.5158C15.0363 16.7832 14.8252 16.9999 14.5649 16.9999C14.3046 16.9999 14.0945 16.7832 14.0945 16.5158C14.0945 16.2493 14.3046 16.0325 14.5649 16.0325Z" fill="#363853" stroke="white" stroke-width="1.5" stroke-linecap="round" stroke-linejoin="round"/>
</svg>
